<svg xmlns="http://www.w3.org/2000/svg" viewBox="0 0 200 200">
  <!-- 背景 -->
  <rect width="200" height="200" fill="#E6F3FF"/>

  <!-- 脸部 -->
  <ellipse cx="100" cy="100" rx="60" ry="70" fill="#FFE4D0"/>

  <!-- 头发 -->
  <path d="M 40 80 Q 40 35 80 40 Q 100 25 120 40 Q 160 35 160 80 L 160 100 Q 155 90 140 95 L 60 95 Q 45 90 40 100 Z" fill="#4169E1"/>

  <!-- 眼睛 -->
  <ellipse cx="75" cy="90" rx="12" ry="18" fill="#000"/>
  <ellipse cx="125" cy="90" rx="12" ry="18" fill="#000"/>
  <ellipse cx="77" cy="88" rx="7" ry="10" fill="#4682B4"/>
  <ellipse cx="127" cy="88" rx="7" ry="10" fill="#4682B4"/>
  <circle cx="79" cy="85" r="3" fill="#FFF"/>
  <circle cx="129" cy="85" r="3" fill="#FFF"/>

  <!-- 眉毛 -->
  <path d="M 65 75 Q 75 73 85 75" stroke="#333" stroke-width="2" fill="none"/>
  <path d="M 115 75 Q 125 73 135 75" stroke="#333" stroke-width="2" fill="none"/>

  <!-- 嘴巴 -->
  <path d="M 90 120 Q 100 123 110 120" stroke="#FF6B6B" stroke-width="2" fill="none"/>
</svg>
