<svg xmlns="http://www.w3.org/2000/svg" viewBox="0 0 200 200">
  <!-- 背景 -->
  <rect width="200" height="200" fill="#E6F2FF"/>

  <!-- 脸部 -->
  <ellipse cx="100" cy="105" rx="55" ry="68" fill="#FFE4D0"/>

  <!-- 头发（刺猬头）-->
  <path d="M 50 75 L 45 50 L 55 70 L 50 45 L 60 68 L 60 40 L 68 66 L 70 35 L 78 65 L 80 30 L 88 64 L 92 28 L 100 63 L 108 28 L 112 64 L 120 30 L 122 65 L 130 35 L 132 66 L 140 40 L 140 68 L 145 45 L 145 70 L 155 50 L 150 75 L 150 110 L 50 110 Z" fill="#2C3E50"/>

  <!-- 酷酷的眼睛 -->
  <path d="M 65 90 L 85 90" stroke="#000" stroke-width="3" fill="none"/>
  <path d="M 115 90 L 135 90" stroke="#000" stroke-width="3" fill="none"/>
  <line x1="75" y1="93" x2="75" y2="98" stroke="#4169E1" stroke-width="2"/>
  <line x1="125" y1="93" x2="125" y2="98" stroke="#4169E1" stroke-width="2"/>

  <!-- 眉毛 -->
  <path d="M 65 80 L 85 82" stroke="#2C3E50" stroke-width="3" fill="none"/>
  <path d="M 115 82 L 135 80" stroke="#2C3E50" stroke-width="3" fill="none"/>

  <!-- 嘴巴 -->
  <path d="M 90 125 L 110 125" stroke="#555" stroke-width="2" fill="none"/>
</svg>
