<svg xmlns="http://www.w3.org/2000/svg" viewBox="0 0 200 200">
  <!-- 背景 -->
  <rect width="200" height="200" fill="#FFE5F0"/>

  <!-- 脸部 -->
  <ellipse cx="100" cy="100" rx="60" ry="70" fill="#FFD4E5"/>

  <!-- 头发 -->
  <path d="M 40 80 Q 40 40 70 40 Q 100 30 130 40 Q 160 40 160 80 L 160 120 Q 160 100 140 100 L 60 100 Q 40 100 40 120 Z" fill="#FF69B4"/>

  <!-- 眼睛 -->
  <ellipse cx="75" cy="90" rx="15" ry="20" fill="#000"/>
  <ellipse cx="125" cy="90" rx="15" ry="20" fill="#000"/>
  <ellipse cx="78" cy="88" rx="8" ry="12" fill="#8B4513"/>
  <ellipse cx="128" cy="88" rx="8" ry="12" fill="#8B4513"/>
  <circle cx="80" cy="85" r="4" fill="#FFF"/>
  <circle cx="130" cy="85" r="4" fill="#FFF"/>

  <!-- 腮红 -->
  <ellipse cx="65" cy="105" rx="12" ry="8" fill="#FFB6C1" opacity="0.6"/>
  <ellipse cx="135" cy="105" rx="12" ry="8" fill="#FFB6C1" opacity="0.6"/>

  <!-- 嘴巴 -->
  <path d="M 90 120 Q 100 125 110 120" stroke="#FF69B4" stroke-width="2" fill="none"/>
</svg>
